<mxfile host="app.diagrams.net" modified="2022-04-01T05:13:42.131Z" agent="5.0 (Macintosh; Intel Mac OS X 10_15_5) AppleWebKit/537.36 (KHTML, like Gecko) Chrome/99.0.4844.84 Safari/537.36" etag="XADUVu4U5EHyB-jncN9u" version="17.2.5" type="github">
  <diagram id="wFE0QG_FPsp0jaGvCLVb" name="Page-1">
    <mxGraphModel dx="1011" dy="702" grid="1" gridSize="10" guides="1" tooltips="1" connect="1" arrows="1" fold="1" page="1" pageScale="1" pageWidth="850" pageHeight="1100" math="0" shadow="0">
      <root>
        <mxCell id="0" />
        <mxCell id="1" parent="0" />
        <mxCell id="UL5-YyF8CRdL_vzGdgXI-1" value="CosXmlService" style="rounded=0;whiteSpace=wrap;html=1;fillColor=#fff2cc;strokeColor=#d6b656;" vertex="1" parent="1">
          <mxGeometry x="220" y="170" width="120" height="60" as="geometry" />
        </mxCell>
        <mxCell id="UL5-YyF8CRdL_vzGdgXI-2" value="CosXmlService" style="rounded=0;whiteSpace=wrap;html=1;fillColor=#fff2cc;strokeColor=#d6b656;" vertex="1" parent="1">
          <mxGeometry x="220" y="300" width="120" height="60" as="geometry" />
        </mxCell>
        <mxCell id="UL5-YyF8CRdL_vzGdgXI-4" value="" style="shape=singleArrow;whiteSpace=wrap;html=1;" vertex="1" parent="1">
          <mxGeometry x="70" y="170" width="100" height="60" as="geometry" />
        </mxCell>
        <mxCell id="UL5-YyF8CRdL_vzGdgXI-5" value="" style="shape=singleArrow;whiteSpace=wrap;html=1;" vertex="1" parent="1">
          <mxGeometry x="70" y="290" width="100" height="60" as="geometry" />
        </mxCell>
        <mxCell id="UL5-YyF8CRdL_vzGdgXI-6" value="busId-A" style="text;html=1;strokeColor=none;fillColor=none;align=center;verticalAlign=middle;whiteSpace=wrap;rounded=0;" vertex="1" parent="1">
          <mxGeometry x="80" y="150" width="60" height="30" as="geometry" />
        </mxCell>
        <mxCell id="UL5-YyF8CRdL_vzGdgXI-7" value="busId-B" style="text;html=1;strokeColor=none;fillColor=none;align=center;verticalAlign=middle;whiteSpace=wrap;rounded=0;" vertex="1" parent="1">
          <mxGeometry x="80" y="260" width="60" height="30" as="geometry" />
        </mxCell>
        <mxCell id="UL5-YyF8CRdL_vzGdgXI-8" value="CosSdk" style="rounded=0;whiteSpace=wrap;html=1;fillColor=#dae8fc;strokeColor=#6c8ebf;" vertex="1" parent="1">
          <mxGeometry x="510" y="170" width="120" height="60" as="geometry" />
        </mxCell>
        <mxCell id="UL5-YyF8CRdL_vzGdgXI-9" value="CosSdk" style="rounded=0;whiteSpace=wrap;html=1;fillColor=#dae8fc;strokeColor=#6c8ebf;" vertex="1" parent="1">
          <mxGeometry x="510" y="300" width="120" height="60" as="geometry" />
        </mxCell>
        <mxCell id="UL5-YyF8CRdL_vzGdgXI-18" value="请求" style="endArrow=open;endSize=12;dashed=1;html=1;rounded=0;" edge="1" parent="1">
          <mxGeometry width="160" relative="1" as="geometry">
            <mxPoint x="345" y="180" as="sourcePoint" />
            <mxPoint x="505" y="180" as="targetPoint" />
          </mxGeometry>
        </mxCell>
        <mxCell id="UL5-YyF8CRdL_vzGdgXI-19" value="请求" style="endArrow=open;endSize=12;dashed=1;html=1;rounded=0;" edge="1" parent="1">
          <mxGeometry y="20" width="160" relative="1" as="geometry">
            <mxPoint x="345" y="319.5" as="sourcePoint" />
            <mxPoint x="505" y="319.5" as="targetPoint" />
            <mxPoint as="offset" />
          </mxGeometry>
        </mxCell>
        <mxCell id="UL5-YyF8CRdL_vzGdgXI-20" value="url" style="html=1;verticalAlign=bottom;endArrow=open;dashed=1;endSize=8;rounded=0;" edge="1" parent="1">
          <mxGeometry x="-0.125" y="-10" relative="1" as="geometry">
            <mxPoint x="465" y="350" as="sourcePoint" />
            <mxPoint x="385" y="350" as="targetPoint" />
            <mxPoint as="offset" />
          </mxGeometry>
        </mxCell>
        <mxCell id="UL5-YyF8CRdL_vzGdgXI-21" value="url" style="html=1;verticalAlign=bottom;endArrow=open;dashed=1;endSize=8;rounded=0;" edge="1" parent="1">
          <mxGeometry x="-0.25" y="-10" relative="1" as="geometry">
            <mxPoint x="460" y="220" as="sourcePoint" />
            <mxPoint x="380" y="220" as="targetPoint" />
            <mxPoint as="offset" />
          </mxGeometry>
        </mxCell>
      </root>
    </mxGraphModel>
  </diagram>
</mxfile>
